2019-11-30 08:24:41.562
Emby Server version: 4.3.0.30

App: Emby Web 4.3.0.30
Chrome

http://0.0.0.0:8096/emby/videos/181/hls1/main/65.ts?DeviceId=TW96aWxsYS81LjAgKFgxMTsgTGludXggeDg2XzY0KSBBcHBsZVdlYktpdC81MzcuMzYgKEtIVE1MLCBsaWtlIEdlY2tvKSBDaHJvbWUvNzguMC4zOTA0LjEwOCBTYWZhcmkvNTM3LjM2fDE1NzQ3NDcwNjQzMzE1&MediaSourceId=73df6c4fca1820d7c16671d9d780c368&PlaySessionId=735401c1ae7e4ce4b11974e423dc7166&api_key=6bb02ad174344c63bc70e5a43d52ea13&VideoCodec=h264&AudioCodec=mp3,aac&VideoBitrate=139808000&AudioBitrate=192000&AudioStreamIndex=1&TranscodingMaxAudioChannels=2&SegmentContainer=ts&MinSegments=1&BreakOnNonKeyFrames=True&ManifestSubtitles=vtt&h264-profile=high,main,baseline,constrainedbaseline,high10&h264-level=51&TranscodeReasons=AudioCodecNotSupported

{"Protocol":"File","Id":"73df6c4fca1820d7c16671d9d780c368","Path":"/mnt/share/vinny/files/tesers/Venom.2018.1080p.WEBRip.x264-DUAL.R5.WWW.COMANDOTORRENTS.COM.mkv","Type":"Default","Container":"mkv","Size":1987345207,"Name":"Venom.2018.1080p.WEBRip.x264-DUAL.R5.WWW.COMANDOTORRENTS.COM","IsRemote":false,"RunTimeTicks":64304840000,"SupportsTranscoding":true,"SupportsDirectStream":true,"SupportsDirectPlay":true,"IsInfiniteStream":false,"RequiresOpening":false,"RequiresClosing":false,"RequiresLooping":false,"SupportsProbing":false,"MediaStreams":[{"Codec":"h264","TimeBase":"1/1000","CodecTimeBase":"1001/48000","VideoRange":"SDR","DisplayTitle":"1080p H264","NalLengthSize":"4","IsInterlaced":false,"IsAVC":true,"BitRate":2472405,"BitDepth":8,"RefFrames":1,"IsDefault":true,"IsForced":false,"Height":800,"Width":1920,"AverageFrameRate":23.9760246,"RealFrameRate":23.9760246,"Profile":"High","Type":"Video","AspectRatio":"2.40:1","Index":0,"IsExternal":false,"IsTextSubtitleStream":false,"SupportsExternalStream":false,"Protocol":"File","PixelFormat":"yuv420p","Level":41,"IsAnamorphic":false},{"Codec":"ac3","Language":"por","TimeBase":"1/1000","CodecTimeBase":"1/48000","Title":"COMANDOTORRENTS.COM","DisplayTitle":"Portuguese Dolby Digital stereo (Default)","DisplayLanguage":"Portuguese","IsInterlaced":false,"ChannelLayout":"stereo","BitRate":192000,"Channels":2,"SampleRate":48000,"IsDefault":true,"IsForced":true,"Type":"Audio","Index":1,"IsExternal":false,"IsTextSubtitleStream":false,"SupportsExternalStream":false,"Protocol":"File","Level":0},{"Codec":"aac","Language":"eng","TimeBase":"1/1000","CodecTimeBase":"1/48000","Title":"COMANDOTORRENTS.COM","DisplayTitle":"English AAC stereo","DisplayLanguage":"English","IsInterlaced":false,"ChannelLayout":"stereo","BitRate":192000,"Channels":2,"SampleRate":48000,"IsDefault":false,"IsForced":false,"Profile":"LC","Type":"Audio","Index":2,"IsExternal":false,"IsTextSubtitleStream":false,"SupportsExternalStream":false,"Protocol":"File","Level":0},{"Codec":"srt","Language":"eng","DisplayTitle":"English (SRT)","DisplayLanguage":"English","IsInterlaced":false,"IsDefault":false,"IsForced":false,"Type":"Subtitle","Index":3,"IsExternal":true,"IsTextSubtitleStream":true,"SupportsExternalStream":true,"Path":"/mnt/share/vinny/files/tesers/Venom.2018.1080p.WEBRip.x264-DUAL.R5.WWW.COMANDOTORRENTS.COM.en.srt","Protocol":"File"},{"Codec":"srt","Language":"pob","DisplayTitle":"Portuguese (Brazil) (SRT)","DisplayLanguage":"Portuguese (Brazil)","IsInterlaced":false,"IsDefault":false,"IsForced":false,"Type":"Subtitle","Index":4,"IsExternal":true,"IsTextSubtitleStream":true,"SupportsExternalStream":true,"Path":"/mnt/share/vinny/files/tesers/Venom.2018.1080p.WEBRip.x264-DUAL.R5.WWW.COMANDOTORRENTS.COM.pt-br.srt","Protocol":"File"}],"Formats":[],"Bitrate":2472405,"RequiredHttpHeaders":{},"ReadAtNativeFramerate":false}

User policy for vinny: EnablePlaybackRemuxing: True EnableVideoPlaybackTranscoding: True EnableAudioPlaybackTranscoding: True

/bin/ffmpeg -loglevel +timing -ss 00:06:30.000  -f matroska -noaccurate_seek -i file:"/mnt/share/vinny/files/tesers/Venom.2018.1080p.WEBRip.x264-DUAL.R5.WWW.COMANDOTORRENTS.COM.mkv" -threads 0 -map 0:0 -map 0:1 -sn -c:v:0 copy -bsf:v h264_mp4toannexb -copyts -vsync -1 -codec:a:0 libmp3lame -metadata:s:a:0 language=por -disposition:a:0 default -ac:a:0 2 -ab:a:0 192000  -f segment -max_delay 5000000 -avoid_negative_ts disabled -map_metadata -1 -map_chapters -1 -start_at_zero -segment_time 6 -segment_time_delta -390 -individual_header_trailer 0 -break_non_keyframes 1 -segment_format mpegts -segment_write_temp 1 -segment_list_type m3u8 -segment_start_number 65 -segment_list "/config/transcoding-temp/33beabbaa5c422230aeb9c11d25b6013.m3u8" -y "/config/transcoding-temp/33beabbaa5c422230aeb9c11d25b6013%d.ts"

08:24:41.661 ffmpeg version 4.3.0-emby_2019_11_09 Copyright (c) 2000-2019 the FFmpeg developers and softworkz for Emby LLC
08:24:41.661   built with gcc 8.3.0 (crosstool-NG 1.24.0)
08:24:41.661 Execution Date: 2019-11-30 08:24:41
08:24:41.694 Input #0, matroska,webm, from 'file:/mnt/share/vinny/files/tesers/Venom.2018.1080p.WEBRip.x264-DUAL.R5.WWW.COMANDOTORRENTS.COM.mkv':
08:24:41.694   Metadata:
08:24:41.694     title           : VENOM 2018 - BAIXE + NO COMANDOTORRENTS.COM
08:24:41.694     encoder         : libebml v1.3.4 + libmatroska v1.4.5
08:24:41.694     creation_time   : 2018-11-28T17:07:59.000000Z
08:24:41.694   Duration: 01:47:10.48, start: 0.000000, bitrate: 2472 kb/s
08:24:41.694     Stream #0:0: Video: h264 (High), yuv420p(progressive), 1920x800 [SAR 1:1 DAR 12:5], Level 41, 23.98 fps, 23.98 tbr, 1k tbn, 47.95 tbc (default)
08:24:41.694     Metadata:
08:24:41.694       BPS             : 2149188
08:24:41.694       BPS-eng         : 2149188
08:24:41.694       DURATION        : 01:47:10.424000000
08:24:41.694       DURATION-eng    : 01:47:10.424000000
08:24:41.694       NUMBER_OF_FRAMES: 154176
08:24:41.694       NUMBER_OF_FRAMES-eng: 154176
08:24:41.694       NUMBER_OF_BYTES : 1727524324
08:24:41.694       NUMBER_OF_BYTES-eng: 1727524324
08:24:41.694     Stream #0:1(por): Audio: ac3, 48000 Hz, stereo, fltp, 192 kb/s (default) (forced)
08:24:41.694     Metadata:
08:24:41.694       title           : COMANDOTORRENTS.COM
08:24:41.695       BPS             : 192000
08:24:41.695       BPS-eng         : 192000
08:24:41.695       DURATION        : 01:47:10.400000000
08:24:41.695       DURATION-eng    : 01:47:10.400000000
08:24:41.695       NUMBER_OF_FRAMES: 200950
08:24:41.695       NUMBER_OF_FRAMES-eng: 200950
08:24:41.695       NUMBER_OF_BYTES : 154329600
08:24:41.695       NUMBER_OF_BYTES-eng: 154329600
08:24:41.695     Stream #0:2(eng): Audio: aac (LC), 48000 Hz, stereo, fltp
08:24:41.695     Metadata:
08:24:41.695       title           : COMANDOTORRENTS.COM
08:24:41.695       BPS             : 128728
08:24:41.695       BPS-eng         : 128728
08:24:41.695       DURATION        : 01:47:10.484000000
08:24:41.695       DURATION-eng    : 01:47:10.484000000
08:24:41.695       NUMBER_OF_FRAMES: 301429
08:24:41.695       NUMBER_OF_FRAMES-eng: 301429
08:24:41.695       NUMBER_OF_BYTES : 103472972
08:24:41.695       NUMBER_OF_BYTES-eng: 103472972
08:24:41.696 Stream mapping:
08:24:41.696   Stream #0:0 -> #0:0 (copy)
08:24:41.696   Stream #0:1 -> #0:1 (ac3 (native) -> mp3 (libmp3lame))
08:24:41.696 Press [q] to stop, [?] for help
08:24:41.705 [segment @ 0x933400] Opening '/config/transcoding-temp/33beabbaa5c422230aeb9c11d25b601365.ts.tmp' for writing
08:24:41.705 Output #0, segment, to '/config/transcoding-temp/33beabbaa5c422230aeb9c11d25b6013%d.ts':
08:24:41.705   Metadata:
08:24:41.705     encoder         : Lavf58.31.104
08:24:41.705     Stream #0:0: Video: h264 (High), yuv420p(progressive), 1920x800 [SAR 1:1 DAR 12:5], q=2-31, Level 41, 23.98 fps, 23.98 tbr, 90k tbn, 23.98 tbc (default)
08:24:41.705     Stream #0:1(por): Audio: mp3 (libmp3lame), 48000 Hz, stereo, fltp, 192 kb/s (default)
08:24:41.705     Metadata:
08:24:41.705       encoder         : Lavc58.56.101 libmp3lame
08:24:42.045 [segment @ 0x933400] Opening '/config/transcoding-temp/33beabbaa5c422230aeb9c11d25b6013.m3u8.tmp' for writing
08:24:42.045 SegmentComplete=video:0 Index=65 Start=0.000000 End=396.020000 Duration=396.020000 offset_pts=0 start_pts=0 Frames=159 filename=33beabbaa5c422230aeb9c11d25b601365.ts
08:24:42.045 [segment @ 0x933400] Opening '/config/transcoding-temp/33beabbaa5c422230aeb9c11d25b601366.ts.tmp' for writing
08:24:42.199 frame=  226 fps=0.0 q=-1.0 size=    5028kB time=00:06:38.86 bitrate= 103.3kbits/s throttle=off speed= 795x    
08:24:42.371 [segment @ 0x933400] Opening '/config/transcoding-temp/33beabbaa5c422230aeb9c11d25b6013.m3u8.tmp' for writing
08:24:42.372 SegmentComplete=video:0 Index=66 Start=396.021000 End=401.943000 Duration=5.922000 offset_pts=0 start_pts=396021000 Frames=142 filename=33beabbaa5c422230aeb9c11d25b601366.ts
08:24:42.372 [segment @ 0x933400] Opening '/config/transcoding-temp/33beabbaa5c422230aeb9c11d25b601367.ts.tmp' for writing
08:24:42.700 frame=  422 fps=421 q=-1.0 size=    7825kB time=00:06:47.04 bitrate= 157.5kbits/s throttle=off speed= 406x    
08:24:42.768 [segment @ 0x933400] Opening '/config/transcoding-temp/33beabbaa5c422230aeb9c11d25b6013.m3u8.tmp' for writing
08:24:42.769 SegmentComplete=video:0 Index=67 Start=402.068000 End=407.990000 Duration=5.922000 offset_pts=0 start_pts=402068000 Frames=145 filename=33beabbaa5c422230aeb9c11d25b601367.ts
08:24:42.769 [segment @ 0x933400] Opening '/config/transcoding-temp/33beabbaa5c422230aeb9c11d25b601368.ts.tmp' for writing
08:24:43.188 [segment @ 0x933400] Opening '/config/transcoding-temp/33beabbaa5c422230aeb9c11d25b6013.m3u8.tmp' for writing
08:24:43.189 SegmentComplete=video:0 Index=68 Start=408.116000 End=413.996000 Duration=5.880000 offset_pts=0 start_pts=408116000 Frames=144 filename=33beabbaa5c422230aeb9c11d25b601368.ts
08:24:43.189 [segment @ 0x933400] Opening '/config/transcoding-temp/33beabbaa5c422230aeb9c11d25b601369.ts.tmp' for writing
08:24:43.202 frame=  594 fps=395 q=-1.0 size=   10869kB time=00:06:54.34 bitrate= 214.9kbits/s throttle=off speed= 275x    
08:24:43.580 [segment @ 0x933400] Opening '/config/transcoding-temp/33beabbaa5c422230aeb9c11d25b6013.m3u8.tmp' for writing
08:24:43.580 SegmentComplete=video:0 Index=69 Start=414.122000 End=420.002000 Duration=5.880000 offset_pts=0 start_pts=414122000 Frames=144 filename=33beabbaa5c422230aeb9c11d25b601369.ts
08:24:43.580 [segment @ 0x933400] Opening '/config/transcoding-temp/33beabbaa5c422230aeb9c11d25b601370.ts.tmp' for writing
08:24:43.704 frame=  778 fps=388 q=-1.0 size=   13054kB time=00:07:01.90 bitrate= 253.5kbits/s throttle=off speed= 210x    
08:24:43.968 [segment @ 0x933400] Opening '/config/transcoding-temp/33beabbaa5c422230aeb9c11d25b6013.m3u8.tmp' for writing
08:24:43.968 SegmentComplete=video:0 Index=70 Start=420.003000 End=425.883000 Duration=5.880000 offset_pts=0 start_pts=420003000 Frames=141 filename=33beabbaa5c422230aeb9c11d25b601370.ts
08:24:43.969 [segment @ 0x933400] Opening '/config/transcoding-temp/33beabbaa5c422230aeb9c11d25b601371.ts.tmp' for writing
08:24:44.202 frame=  979 fps=391 q=-1.0 size=   15137kB time=00:07:10.42 bitrate= 288.1kbits/s throttle=off speed= 172x    
08:24:44.294 [segment @ 0x933400] Opening '/config/transcoding-temp/33beabbaa5c422230aeb9c11d25b6013.m3u8.tmp' for writing
08:24:44.294 SegmentComplete=video:0 Index=71 Start=426.009000 End=432.014000 Duration=6.005000 offset_pts=0 start_pts=426009000 Frames=147 filename=33beabbaa5c422230aeb9c11d25b601371.ts
08:24:44.294 [segment @ 0x933400] Opening '/config/transcoding-temp/33beabbaa5c422230aeb9c11d25b601372.ts.tmp' for writing
08:24:44.541 [segment @ 0x933400] Opening '/config/transcoding-temp/33beabbaa5c422230aeb9c11d25b6013.m3u8.tmp' for writing
08:24:44.542 SegmentComplete=video:0 Index=72 Start=432.140000 End=438.020000 Duration=5.880000 offset_pts=0 start_pts=432140000 Frames=144 filename=33beabbaa5c422230aeb9c11d25b601372.ts
08:24:44.542 [segment @ 0x933400] Opening '/config/transcoding-temp/33beabbaa5c422230aeb9c11d25b601373.ts.tmp' for writing
08:24:44.705 frame= 1270 fps=422 q=-1.0 size=   17343kB time=00:07:22.44 bitrate= 321.1kbits/s throttle=off speed= 147x    
08:24:44.768 [segment @ 0x933400] Opening '/config/transcoding-temp/33beabbaa5c422230aeb9c11d25b6013.m3u8.tmp' for writing
08:24:44.769 SegmentComplete=video:0 Index=73 Start=438.146000 End=443.943000 Duration=5.797000 offset_pts=0 start_pts=438146000 Frames=142 filename=33beabbaa5c422230aeb9c11d25b601373.ts
08:24:44.769 [segment @ 0x933400] Opening '/config/transcoding-temp/33beabbaa5c422230aeb9c11d25b601374.ts.tmp' for writing
08:24:45.029 [segment @ 0x933400] Opening '/config/transcoding-temp/33beabbaa5c422230aeb9c11d25b6013.m3u8.tmp' for writing
08:24:45.030 SegmentComplete=video:0 Index=74 Start=444.069000 End=450.032000 Duration=5.963000 offset_pts=0 start_pts=444069000 Frames=146 filename=33beabbaa5c422230aeb9c11d25b601374.ts
08:24:45.030 [segment @ 0x933400] Opening '/config/transcoding-temp/33beabbaa5c422230aeb9c11d25b601375.ts.tmp' for writing
08:24:45.206 frame= 1542 fps=439 q=-1.0 size=   18828kB time=00:07:33.77 bitrate= 339.9kbits/s throttle=off speed= 129x    
08:24:45.330 

[q] command received. Exiting.

08:24:45.333 08:24:45.334 [segment @ 0x933400] Opening '/config/transcoding-temp/33beabbaa5c422230aeb9c11d25b6013.m3u8.tmp' for writing
08:24:45.334 SegmentComplete=video:0 Index=75 Start=450.116000 End=455.705000 Duration=5.589000 offset_pts=0 start_pts=450116000 Frames=136 filename=33beabbaa5c422230aeb9c11d25b601375.ts
08:24:45.334 frame= 1590 fps=437 q=-1.0 Lsize=   19047kB time=00:07:35.84 bitrate= 342.3kbits/s throttle=off speed= 125x    
08:24:45.334 video:17490kB audio:1558kB subtitle:0kB other streams:0kB global headers:0kB muxing overhead: 0.000000%
    Last message repeated 1 times
08:24:45.334 EXIT
08:24:45.335 
